<svg width="current" height="current" viewBox="0 0 20 22" fill="none" xmlns="http://www.w3.org/2000/svg">
<path fill-rule="evenodd" clip-rule="evenodd" d="M14.5 0H2.5C1.4 0 0.5 0.9 0.5 2V16H2.5V2H14.5V0ZM17.5 4H6.5C5.4 4 4.5 4.9 4.5 6V20C4.5 21.1 5.4 22 6.5 22H17.5C18.6 22 19.5 21.1 19.5 20V6C19.5 4.9 18.6 4 17.5 4ZM17.5 20H6.5V6H17.5V20Z" fill="current"/>
<path fill-rule="evenodd" clip-rule="evenodd" d="M16.3738 10.2929C16.7643 10.6834 16.7643 11.3166 16.3738 11.7071L11.7904 16.2904C11.6029 16.478 11.3485 16.5833 11.0833 16.5833C10.8181 16.5833 10.5638 16.478 10.3762 16.2904L8.29289 14.2071C7.90237 13.8166 7.90237 13.1834 8.29289 12.7929C8.68342 12.4024 9.31658 12.4024 9.70711 12.7929L11.0833 14.1691L14.9596 10.2929C15.3501 9.90237 15.9832 9.90237 16.3738 10.2929Z" fill="current"/>
</svg>
