<svg width="current" height="current" viewBox="0 0 32 32" fill="none" xmlns="http://www.w3.org/2000/svg">
<g clip-path="url(#clip0_89_19)">
<path d="M14 8.2783C14.0976 8.39691 14.1574 8.54207 14.1717 8.69502C14.1859 8.84797 14.154 9.00168 14.08 9.1363C13.5019 10.1978 13.1999 11.3876 13.202 12.5963C13.202 16.6173 16.48 19.8733 20.52 19.8733C21.047 19.8733 21.56 19.8183 22.053 19.7133C22.2041 19.6806 22.3615 19.6931 22.5056 19.7493C22.6497 19.8055 22.774 19.9029 22.863 20.0293C22.957 20.1607 23.0049 20.3196 22.9993 20.4811C22.9937 20.6426 22.9349 20.7977 22.832 20.9223C22.0477 21.8857 21.0582 22.662 19.9358 23.1945C18.8134 23.727 17.5863 24.0023 16.344 24.0003C11.734 24.0003 8 20.2863 8 15.7103C8 12.2663 10.114 9.3123 13.124 8.0603C13.2739 7.99693 13.4404 7.98392 13.5983 8.02323C13.7563 8.06254 13.8973 8.15205 14 8.2783Z" fill="current"/>
<path d="M18.7938 11.148C18.8082 11.1047 18.8358 11.067 18.8728 11.0403C18.9097 11.0136 18.9542 10.9992 18.9998 10.9992C19.0454 10.9992 19.0899 11.0136 19.1269 11.0403C19.1638 11.067 19.1915 11.1047 19.2058 11.148L19.5928 12.31C19.7658 12.828 20.1718 13.234 20.6898 13.407L21.8518 13.794C21.8951 13.8083 21.9328 13.8359 21.9595 13.8729C21.9862 13.9099 22.0006 13.9544 22.0006 14C22.0006 14.0456 21.9862 14.09 21.9595 14.127C21.9328 14.164 21.8951 14.1916 21.8518 14.206L20.6898 14.593C20.4343 14.6781 20.2022 14.8215 20.0118 15.0119C19.8214 15.2024 19.6779 15.4345 19.5928 15.69L19.2058 16.852C19.1915 16.8953 19.1638 16.933 19.1269 16.9597C19.0899 16.9864 19.0454 17.0008 18.9998 17.0008C18.9542 17.0008 18.9097 16.9864 18.8728 16.9597C18.8358 16.933 18.8082 16.8953 18.7938 16.852L18.4068 15.69C18.3217 15.4345 18.1782 15.2024 17.9878 15.0119C17.7974 14.8215 17.5653 14.6781 17.3098 14.593L16.1478 14.206C16.1045 14.1916 16.0668 14.164 16.0401 14.127C16.0134 14.09 15.999 14.0456 15.999 14C15.999 13.9544 16.0134 13.9099 16.0401 13.8729C16.0668 13.8359 16.1045 13.8083 16.1478 13.794L17.3098 13.407C17.5653 13.3219 17.7974 13.1784 17.9878 12.988C18.1782 12.7976 18.3217 12.5654 18.4068 12.31L18.7938 11.148ZM21.8628 8.09897C21.8727 8.07049 21.8912 8.0458 21.9157 8.02833C21.9403 8.01085 21.9697 8.00146 21.9998 8.00146C22.0299 8.00146 22.0593 8.01085 22.0839 8.02833C22.1084 8.0458 22.1269 8.07049 22.1368 8.09897L22.3948 8.87297C22.5098 9.21897 22.7808 9.48997 23.1268 9.60497L23.9008 9.86297C23.9293 9.87284 23.954 9.89134 23.9714 9.91589C23.9889 9.94044 23.9983 9.96983 23.9983 9.99997C23.9983 10.0301 23.9889 10.0595 23.9714 10.084C23.954 10.1086 23.9293 10.1271 23.9008 10.137L23.1268 10.395C22.9563 10.4517 22.8014 10.5474 22.6743 10.6745C22.5472 10.8015 22.4515 10.9565 22.3948 11.127L22.1368 11.901C22.1269 11.9294 22.1084 11.9541 22.0839 11.9716C22.0593 11.9891 22.0299 11.9985 21.9998 11.9985C21.9697 11.9985 21.9403 11.9891 21.9157 11.9716C21.8912 11.9541 21.8727 11.9294 21.8628 11.901L21.6048 11.127C21.5481 10.9565 21.4524 10.8015 21.3253 10.6745C21.1983 10.5474 21.0433 10.4517 20.8728 10.395L20.0988 10.137C20.0703 10.1271 20.0456 10.1086 20.0282 10.084C20.0107 10.0595 20.0013 10.0301 20.0013 9.99997C20.0013 9.96983 20.0107 9.94044 20.0282 9.91589C20.0456 9.89134 20.0703 9.87284 20.0988 9.86297L20.8728 9.60497C21.2188 9.48997 21.4898 9.21897 21.6048 8.87297L21.8628 8.09997V8.09897Z" fill="current"/>
</g>
<defs>
<clipPath id="clip0_89_19">
<rect width="16" height="16" fill="white" transform="translate(8 8)"/>
</clipPath>
</defs>
</svg>
