<svg width="current" height="current" viewBox="0 0 32 32" fill="none" xmlns="http://www.w3.org/2000/svg">
<path d="M16 23C19.866 23 23 19.866 23 16C23 12.134 19.866 9 16 9C12.134 9 9 12.134 9 16C9 19.866 12.134 23 16 23Z" fill="current"/>
<path fill-rule="evenodd" clip-rule="evenodd" d="M16 2C16.5523 2 17 2.44772 17 3V6C17 6.55228 16.5523 7 16 7C15.4477 7 15 6.55228 15 6V3C15 2.44772 15.4477 2 16 2Z" fill="current"/>
<path fill-rule="evenodd" clip-rule="evenodd" d="M16 25C16.5523 25 17 25.4477 17 26V29C17 29.5523 16.5523 30 16 30C15.4477 30 15 29.5523 15 29V26C15 25.4477 15.4477 25 16 25Z" fill="current"/>
<path fill-rule="evenodd" clip-rule="evenodd" d="M25 16C25 15.4477 25.4477 15 26 15H29C29.5523 15 30 15.4477 30 16C30 16.5523 29.5523 17 29 17H26C25.4477 17 25 16.5523 25 16Z" fill="current"/>
<path fill-rule="evenodd" clip-rule="evenodd" d="M2 16C2 15.4477 2.44772 15 3 15H6C6.55228 15 7 15.4477 7 16C7 16.5523 6.55228 17 6 17H3C2.44772 17 2 16.5523 2 16Z" fill="current"/>
<path fill-rule="evenodd" clip-rule="evenodd" d="M25.8989 6.101C26.2894 6.49152 26.2894 7.12469 25.8989 7.51521L23.7779 9.63621C23.3874 10.0267 22.7542 10.0267 22.3637 9.63621C21.9732 9.24569 21.9732 8.61252 22.3637 8.222L24.4847 6.101C24.8752 5.71047 25.5084 5.71047 25.8989 6.101Z" fill="current"/>
<path fill-rule="evenodd" clip-rule="evenodd" d="M9.63621 22.3639C10.0267 22.7545 10.0267 23.3876 9.63621 23.7782L7.51521 25.8992C7.12469 26.2897 6.49152 26.2897 6.101 25.8992C5.71047 25.5086 5.71047 24.8755 6.101 24.4849L8.222 22.3639C8.61252 21.9734 9.24569 21.9734 9.63621 22.3639Z" fill="current"/>
<path fill-rule="evenodd" clip-rule="evenodd" d="M22.3637 22.3639C22.7542 21.9734 23.3874 21.9734 23.7779 22.3639L25.8989 24.4849C26.2894 24.8755 26.2894 25.5086 25.8989 25.8992C25.5084 26.2897 24.8752 26.2897 24.4847 25.8992L22.3637 23.7782C21.9732 23.3876 21.9732 22.7545 22.3637 22.3639Z" fill="current"/>
<path fill-rule="evenodd" clip-rule="evenodd" d="M6.101 6.101C6.49152 5.71047 7.12469 5.71047 7.51521 6.101L9.63621 8.222C10.0267 8.61252 10.0267 9.24569 9.63621 9.63621C9.24569 10.0267 8.61252 10.0267 8.222 9.63621L6.101 7.51521C5.71047 7.12469 5.71047 6.49152 6.101 6.101Z" fill="current"/>
</svg>
