<svg width="current" height="current" viewBox="0 0 125 125" fill="none" xmlns="http://www.w3.org/2000/svg">
<path d="M27.554 84.8126L26.5058 82.7021L28.9558 79.425L28.9217 79.3563L24.8301 79.3283L23.7819 77.2177L30.4074 77.4908L33.018 76.1942L33.9506 78.0719L31.34 79.3685L27.554 84.8126Z" fill="current"/>
<path d="M21.3232 63.2408L21.2183 61.1383L26.8405 60.8577C27.4903 60.8253 28.0641 60.9517 28.5619 61.2369C29.0568 61.5222 29.45 61.935 29.7415 62.4751C30.0302 63.0153 30.1928 63.6515 30.2293 64.3835C30.2663 65.1241 30.168 65.7775 29.9346 66.3438C29.6983 66.9103 29.3481 67.3587 28.8839 67.6891C28.4168 68.0196 27.8584 68.2011 27.2086 68.2335L21.5864 68.5141L21.4812 66.4073L26.9205 66.1359C27.2213 66.1209 27.4861 66.0422 27.7151 65.8999C27.944 65.7548 28.1191 65.5598 28.2406 65.3148C28.362 65.0698 28.4149 64.7898 28.3992 64.4749C28.3835 64.1599 28.3031 63.888 28.158 63.6592C28.0127 63.4275 27.819 63.2509 27.5768 63.1292C27.3347 63.0076 27.0632 62.9543 26.7625 62.9694L21.3232 63.2408Z" fill="current"/>
<path d="M25.2763 44.6746L33.4403 47.7592L32.8077 49.4335L26.8684 50.9021L26.8488 50.9539L31.5606 52.7341L30.8151 54.7074L22.6511 51.6228L23.2927 49.9246L29.2105 48.4889L29.2361 48.4211L24.5322 46.6439L25.2763 44.6746Z" fill="current"/>
<path d="M35.4844 35.049C35.2379 34.8549 34.9745 34.7798 34.6944 34.8238C34.4142 34.8637 34.1325 35.0333 33.8494 35.3325C33.662 35.5306 33.5316 35.7201 33.4582 35.901C33.3849 36.0819 33.3624 36.2483 33.3907 36.4003C33.417 36.5503 33.4869 36.681 33.6005 36.7924C33.6915 36.8863 33.7927 36.9468 33.904 36.9739C34.0172 36.9988 34.1398 36.9975 34.2716 36.9697C34.4034 36.9379 34.5446 36.8837 34.6952 36.8072C34.8458 36.7307 35.0049 36.6348 35.1725 36.5197L35.8118 36.092C36.1766 35.8427 36.529 35.6521 36.869 35.5201C37.211 35.386 37.5375 35.3116 37.8485 35.297C38.1616 35.2803 38.4603 35.3262 38.7446 35.4349C39.029 35.5436 39.2991 35.7169 39.5549 35.955C39.9533 36.3358 40.2012 36.762 40.2987 37.2336C40.3962 37.7052 40.3436 38.201 40.141 38.7211C39.9403 39.2391 39.5901 39.7622 39.0903 40.2905C38.5885 40.8209 38.0718 41.208 37.5399 41.4519C37.0081 41.6957 36.4767 41.7738 35.9458 41.686C35.4148 41.5982 34.8988 41.3232 34.3976 40.8608L35.7857 39.3935C36.0018 39.5744 36.2238 39.6808 36.4517 39.7126C36.6797 39.7445 36.9088 39.709 37.1391 39.6061C37.3713 39.5012 37.5938 39.3363 37.8066 39.1113C38.0019 38.905 38.1399 38.7032 38.2209 38.506C38.3038 38.3068 38.3328 38.1211 38.3079 37.949C38.2831 37.7768 38.2076 37.6292 38.0816 37.5061C37.96 37.3949 37.8227 37.3354 37.6697 37.3276C37.5147 37.3178 37.335 37.359 37.1306 37.4511C36.926 37.5391 36.6876 37.6734 36.4153 37.8537L35.6338 38.3698C34.9886 38.7996 34.3763 39.0397 33.7969 39.0899C33.2154 39.1382 32.6853 38.9338 32.2064 38.4769C31.8123 38.108 31.5682 37.6777 31.4742 37.1859C31.3802 36.6942 31.4283 36.1824 31.6185 35.6506C31.8088 35.1188 32.1313 34.6125 32.5862 34.1316C33.0509 33.6405 33.5376 33.2934 34.0465 33.0904C34.5552 32.8833 35.0539 32.8213 35.5425 32.9042C36.0311 32.9871 36.4745 33.2129 36.8725 33.5817L35.4844 35.049Z" fill="current"/>
<path d="M45.9798 34.446L42.3308 26.5183L47.8585 23.9739L48.5748 25.53L44.9632 27.1924L45.7115 28.8182L49.0406 27.2859L49.7586 28.8459L46.4296 30.3783L47.1797 32.0079L50.7913 30.3455L51.5076 31.9017L45.9798 34.446Z" fill="current"/>
<path d="M62.622 21.3151L64.7258 21.2416L64.9225 26.8674C64.9452 27.5176 64.8103 28.0894 64.5177 28.5829C64.225 29.0735 63.8065 29.4605 63.2621 29.7439C62.7176 30.0245 62.0791 30.1776 61.3466 30.2032C60.6055 30.2291 59.9536 30.1211 59.3909 29.8793C58.828 29.6346 58.3848 29.2777 58.0614 28.8086C57.7379 28.3367 57.5648 27.7756 57.5421 27.1254L57.3454 21.4996L59.4535 21.4259L59.6438 26.8686C59.6543 27.1695 59.729 27.4356 59.8678 27.6667C60.0095 27.8976 60.2019 28.0757 60.4451 28.2008C60.6882 28.3259 60.9674 28.3829 61.2825 28.3719C61.5977 28.3609 61.8707 28.2845 62.1017 28.1429C62.3355 28.0011 62.5151 27.81 62.6403 27.5697C62.7655 27.3294 62.8228 27.0588 62.8123 26.7578L62.622 21.3151Z" fill="current"/>
<path d="M71.0192 31.0406L73.9855 22.8329L75.9693 23.5499L73.5853 30.1465L76.9998 31.3805L76.4176 32.9916L71.0192 31.0406Z" fill="current"/>
<path d="M83.9799 34.5528C83.7366 34.3658 83.594 34.1201 83.5521 33.8156C83.5124 33.5129 83.5872 33.2407 83.7764 32.9992C83.9576 32.7586 84.1987 32.6197 84.4997 32.5823C84.8047 32.5443 85.0789 32.6188 85.3222 32.8058C85.552 32.9823 85.689 33.2237 85.7331 33.5299C85.7813 33.8356 85.7147 34.1087 85.5335 34.3492C85.4066 34.5097 85.2505 34.6244 85.065 34.6932C84.8818 34.7638 84.6934 34.7875 84.4999 34.7642C84.3087 34.7427 84.1354 34.6722 83.9799 34.5528Z" fill="current"/>
<path d="M89.5563 44.3227L87.7939 41.6208L95.1036 36.8529L96.8637 39.5512C97.3495 40.296 97.6214 41.0327 97.6795 41.7614C97.7415 42.4909 97.5943 43.1805 97.238 43.8301C96.884 44.4782 96.3274 45.0498 95.5684 45.5449C94.807 46.0416 94.0572 46.322 93.319 46.3863C92.5823 46.453 91.8915 46.3117 91.2465 45.9625C90.6039 45.6117 90.0405 45.0651 89.5563 44.3227ZM90.4525 42.4051L91.0182 43.2724C91.2852 43.6817 91.58 43.9829 91.9027 44.1761C92.2294 44.37 92.5971 44.4371 93.0058 44.3774C93.4185 44.3185 93.8878 44.1176 94.4137 43.7746C94.9395 43.4316 95.3102 43.0846 95.5257 42.7338C95.7435 42.3814 95.8276 42.0162 95.7778 41.6383C95.7319 41.2612 95.5724 40.8632 95.2993 40.4445L94.7498 39.6021L90.4525 42.4051Z" fill="current"/>
<path d="M94.0412 53.4597L102.625 51.8841L103.724 57.8693L102.039 58.1786L101.321 54.2681L99.5606 54.5912L100.222 58.1958L98.5331 58.5058L97.8715 54.9013L96.1069 55.2252L96.8247 59.1357L95.1398 59.445L94.0412 53.4597Z" fill="current"/>
<path d="M103.36 69.7196L96.6915 70.1655L96.675 70.236L102.455 73.5911L101.918 75.89L94.0898 71.0366L94.7288 68.3021L103.897 67.4207L103.36 69.7196Z" fill="current"/>
<path d="M92.1801 81.8673C92.3487 81.611 92.5833 81.4508 92.8839 81.3868C93.183 81.3251 93.4599 81.3797 93.7146 81.5508C93.9678 81.7139 94.124 81.9442 94.1833 82.2417C94.2434 82.5431 94.1892 82.822 94.0205 83.0783C93.8613 83.3204 93.6305 83.4746 93.3284 83.5411C93.027 83.6115 92.7498 83.5651 92.4966 83.4019C92.3273 83.2871 92.2015 83.1397 92.1193 82.9598C92.0355 82.7822 91.9981 82.5961 92.0072 82.4014C92.0147 82.2091 92.0723 82.0311 92.1801 81.8673Z" fill="current"/>
<path d="M85.3602 86.1594L90.7511 93.0225L87.8893 95.2705C87.3754 95.6741 86.8883 95.9393 86.428 96.0661C85.9654 96.1947 85.5443 96.1967 85.1647 96.0722C84.7829 95.9494 84.4569 95.716 84.1866 95.372C83.9813 95.1106 83.8527 94.8341 83.8007 94.5426C83.7505 94.2533 83.7688 93.9662 83.8556 93.6812C83.9425 93.3962 84.091 93.1278 84.3014 92.8759L84.2487 92.8088C83.9612 93.013 83.6466 93.1391 83.305 93.1871C82.9611 93.2368 82.622 93.1961 82.2878 93.0649C81.9553 92.9359 81.6591 92.7061 81.3994 92.3755C81.1099 92.0068 80.9449 91.6036 80.9044 91.1658C80.8657 90.7302 80.9581 90.2891 81.1817 89.8425C81.4071 89.3981 81.7734 88.9768 82.2805 88.5784L85.3602 86.1594ZM84.7517 88.7995L83.7262 89.6049C83.3665 89.8875 83.1553 90.1636 83.0926 90.4332C83.0276 90.7046 83.0907 90.9621 83.282 91.2056C83.4207 91.3821 83.5813 91.5015 83.764 91.564C83.9484 91.6286 84.1438 91.6359 84.3501 91.5858C84.5582 91.538 84.7684 91.4307 84.9806 91.264L86.0362 90.4348L84.7517 88.7995ZM86.8759 91.5038L85.9577 92.2251C85.7768 92.3672 85.6396 92.5237 85.5462 92.6946C85.4529 92.8655 85.4118 93.0386 85.4231 93.214C85.4322 93.3911 85.4999 93.5601 85.6263 93.7209C85.807 93.951 86.0307 94.068 86.2973 94.0717C86.5639 94.0754 86.8358 93.9684 87.1128 93.7508L88.0578 93.0085L86.8759 91.5038Z" fill="current"/>
<path d="M74.9207 92.8976L77.4895 101.238L75.4736 101.859L73.409 95.1557L69.9392 96.2243L69.4349 94.5872L74.9207 92.8976Z" fill="current"/>
<path d="M55.1459 98.9833C55.2396 98.0277 55.5027 97.2357 55.9354 96.6072C56.368 95.9788 56.9151 95.5229 57.5766 95.2394C58.2352 94.9557 58.9533 94.852 59.7308 94.9281C60.5112 95.0046 61.1967 95.2473 61.7875 95.6563C62.3783 96.0653 62.8251 96.6186 63.1278 97.3162C63.4274 98.0164 63.5306 98.8429 63.4372 99.7957C63.3436 100.751 63.0818 101.544 62.652 102.172C62.2194 102.801 61.6737 103.257 61.0151 103.54C60.3564 103.824 59.6369 103.928 58.8566 103.851C58.079 103.775 57.3948 103.534 56.8037 103.128C56.2098 102.721 55.7616 102.168 55.4592 101.467C55.1567 100.767 55.0523 99.939 55.1459 98.9833ZM57.2919 99.1936C57.2365 99.7591 57.2703 100.245 57.3932 100.651C57.5133 101.056 57.7134 101.374 57.9934 101.604C58.2706 101.834 58.6185 101.97 59.0369 102.011C59.4525 102.051 59.82 101.986 60.1394 101.815C60.4588 101.643 60.7181 101.37 60.9175 100.996C61.1141 100.621 61.2401 100.151 61.2955 99.5859C61.3509 99.0204 61.3185 98.5348 61.1984 98.1291C61.0755 97.7231 60.874 97.4051 60.594 97.175C60.3139 96.9449 59.9661 96.8095 59.5505 96.7688C59.132 96.7278 58.7645 96.7931 58.448 96.9647C58.1286 97.1361 57.8707 97.4091 57.6741 97.7838C57.4747 98.1582 57.3473 98.6281 57.2919 99.1936Z" fill="current"/>
<path d="M41.7361 94.9091C41.6859 95.0875 41.6661 95.2593 41.6767 95.4244C41.6858 95.592 41.7242 95.7522 41.7918 95.9051C41.8594 96.0579 41.9564 96.2002 42.0829 96.3319C42.2079 96.4661 42.3607 96.5871 42.5412 96.6948C42.9047 96.9118 43.2718 97.0118 43.6425 96.9949C44.0108 96.9765 44.3674 96.8419 44.7122 96.5912C45.0556 96.3429 45.37 95.9797 45.6554 95.5016C45.9423 95.021 46.1174 94.5697 46.1807 94.1477C46.2441 93.7256 46.1972 93.3469 46.04 93.0116C45.8828 92.6762 45.6164 92.3964 45.2408 92.1722C44.909 91.9742 44.5965 91.8604 44.3031 91.8309C44.0058 91.8023 43.7377 91.8524 43.4988 91.981C43.2599 92.1097 43.0596 92.3095 42.898 92.5802L42.5854 92.339L44.4076 93.4267L43.6191 94.7477L40.3881 92.8191L40.98 91.8275C41.3805 91.1566 41.8661 90.6673 42.4369 90.3596C43.0052 90.0504 43.6147 89.9162 44.2652 89.9571C44.9133 89.9966 45.5593 90.2085 46.2033 90.5929C46.9181 91.0195 47.4537 91.5494 47.8104 92.1824C48.167 92.8155 48.3254 93.5089 48.2857 94.2627C48.2446 95.019 47.9881 95.7923 47.5164 96.5826C47.1494 97.1974 46.7325 97.688 46.2656 98.0544C45.7973 98.4233 45.3007 98.6761 44.7758 98.8128C44.2484 98.9479 43.7179 98.9721 43.1842 98.8851C42.6481 98.7967 42.13 98.6032 41.6299 98.3047C41.1957 98.0455 40.8291 97.7423 40.5301 97.3951C40.2287 97.0465 40.0018 96.6728 39.8494 96.2742C39.6945 95.874 39.62 95.464 39.6258 95.044C39.6317 94.624 39.7241 94.2143 39.903 93.8148L41.7361 94.9091Z" fill="current"/>
<path d="M35.3127 84.936C35.5057 85.1745 35.587 85.4467 35.5568 85.7526C35.5247 86.0563 35.3886 86.3035 35.1483 86.4943C34.9159 86.6859 34.6491 86.7648 34.3476 86.731C34.0422 86.6967 33.793 86.5603 33.6 86.3218C33.4177 86.0965 33.3408 85.8299 33.3693 85.5218C33.3937 85.2133 33.5221 84.9632 33.7544 84.7716C33.9152 84.6452 34.0939 84.5701 34.2903 84.5464C34.4849 84.5204 34.6736 84.5414 34.8563 84.6091C35.0373 84.6747 35.1894 84.7836 35.3127 84.936Z" fill="current"/>
</svg>
