<svg width="59" height="22" viewBox="current" fill="none" xmlns="http://www.w3.org/2000/svg">
<path d="M46.2813 3.07198L55.1133 13.008V2.87998H55.3533V15.84H55.1133V13.368L46.0413 3.19198C46.0253 3.17598 46.0013 3.15998 45.9693 3.14398C45.9533 3.12798 45.9373 3.11998 45.9213 3.11998C45.9053 3.11998 45.8893 3.12798 45.8733 3.14398C45.8733 3.15998 45.8733 3.17598 45.8733 3.19198V15.84H45.6333V3.14398C45.6333 3.04798 45.6653 2.97598 45.7293 2.92798C45.7933 2.87998 45.8573 2.85598 45.9213 2.85598C45.9853 2.85598 46.0413 2.87198 46.0893 2.90398C46.1373 2.93598 46.2013 2.99198 46.2813 3.07198ZM47.5773 18C47.8813 18 48.0973 17.936 48.2253 17.808C48.3693 17.664 48.4413 17.44 48.4413 17.136V9.21598L52.5453 14.184V17.136C52.5453 17.44 52.6093 17.664 52.7373 17.808C52.8813 17.936 53.1053 18 53.4093 18H57.0093C57.3133 18 57.5293 17.936 57.6573 17.808C57.8013 17.664 57.8733 17.44 57.8733 17.136V1.58398C57.8733 1.27998 57.8013 1.06398 57.6573 0.93598C57.5293 0.79198 57.3133 0.71998 57.0093 0.71998H53.4093C53.1053 0.71998 52.8813 0.79198 52.7373 0.93598C52.6093 1.06398 52.5453 1.27998 52.5453 1.58398V6.69598L47.8893 1.36798C47.6813 1.12798 47.4653 0.95998 47.2413 0.863979C47.0333 0.76798 46.7773 0.71998 46.4733 0.71998H43.9773C43.6733 0.71998 43.4493 0.79198 43.3053 0.93598C43.1773 1.06398 43.1133 1.27998 43.1133 1.58398V17.136C43.1133 17.44 43.1773 17.664 43.3053 17.808C43.4493 17.936 43.6733 18 43.9773 18H47.5773ZM48.3453 18.024L45.2253 20.616C45.1613 20.68 45.0573 20.736 44.9133 20.784C44.7853 20.832 44.6413 20.856 44.4813 20.856H40.8813C40.4973 20.856 40.2173 20.768 40.0413 20.592C39.8653 20.416 39.7773 20.136 39.7773 19.752V4.19998C39.7773 3.99198 39.8013 3.81598 39.8493 3.67198C39.9133 3.52798 40.0013 3.40798 40.1133 3.31198L43.2093 0.69598C43.2893 0.63198 43.3933 0.58398 43.5213 0.551979C43.6653 0.50398 43.8173 0.47998 43.9773 0.47998H46.4733C46.8253 0.47998 47.1213 0.53598 47.3613 0.64798C47.6013 0.75998 47.8413 0.94398 48.0813 1.19998L49.7373 3.11998L52.6413 0.69598C52.7213 0.63198 52.8253 0.58398 52.9533 0.551979C53.0973 0.50398 53.2493 0.47998 53.4093 0.47998H57.0093C57.3933 0.47998 57.6733 0.567981 57.8493 0.74398C58.0253 0.919981 58.1133 1.19998 58.1133 1.58398V17.136C58.1133 17.344 58.0813 17.52 58.0173 17.664C57.9693 17.808 57.8893 17.928 57.7773 18.024L54.6573 20.616C54.5933 20.68 54.4893 20.736 54.3453 20.784C54.2173 20.832 54.0733 20.856 53.9133 20.856H50.3133C49.9293 20.856 49.6493 20.768 49.4733 20.592C49.2973 20.416 49.2093 20.136 49.2093 19.752V16.896L48.6813 16.248V17.136C48.6813 17.344 48.6493 17.52 48.5853 17.664C48.5373 17.808 48.4573 17.928 48.3453 18.024Z" fill="current"/>
<path d="M27.4724 21.216C25.9204 21.216 24.6404 21.048 23.6324 20.712C22.6404 20.392 21.8644 19.96 21.3044 19.416C20.7444 18.872 20.3524 18.248 20.1284 17.544C19.9204 16.84 19.8164 16.112 19.8164 15.36V4.19998C19.8164 3.99198 19.8404 3.81598 19.8884 3.67198C19.9524 3.52798 20.0404 3.40798 20.1524 3.31198L23.2484 0.69598C23.3284 0.63198 23.4324 0.58398 23.5604 0.551979C23.7044 0.50398 23.8564 0.47998 24.0164 0.47998H27.7844C28.1684 0.47998 28.4484 0.567981 28.6244 0.74398C28.8004 0.919981 28.8884 1.19998 28.8884 1.58398V12.528C28.8884 12.672 28.9124 12.808 28.9604 12.936C29.0084 13.048 29.1124 13.136 29.2724 13.2V4.19998C29.2724 3.99198 29.2964 3.81598 29.3444 3.67198C29.3924 3.52798 29.4644 3.41598 29.5604 3.33598L29.5844 3.31198L32.7044 0.69598C32.7844 0.63198 32.8884 0.58398 33.0164 0.551979C33.1444 0.50398 33.2964 0.47998 33.4724 0.47998H37.1204C37.5044 0.47998 37.7844 0.567981 37.9604 0.74398C38.1364 0.919981 38.2244 1.19998 38.2244 1.58398V13.464C38.2244 14.2 38.1204 14.88 37.9124 15.504C37.7044 16.128 37.3284 16.664 36.7844 17.112L33.6644 19.704C33.1044 20.184 32.3284 20.552 31.3364 20.808C30.3444 21.08 29.0564 21.216 27.4724 21.216ZM37.9844 13.464V1.58398C37.9844 1.27998 37.9124 1.06398 37.7684 0.93598C37.6404 0.79198 37.4244 0.71998 37.1204 0.71998H33.4724C33.1684 0.71998 32.9444 0.79198 32.8004 0.93598C32.6724 1.06398 32.6084 1.27998 32.6084 1.58398V12.528C32.6084 12.848 32.4884 13.12 32.2484 13.344C32.0084 13.552 31.4644 13.656 30.6164 13.656C29.7844 13.656 29.2484 13.552 29.0084 13.344C28.7684 13.12 28.6484 12.848 28.6484 12.528V1.58398C28.6484 1.27998 28.5764 1.06398 28.4324 0.93598C28.3044 0.79198 28.0884 0.71998 27.7844 0.71998H24.0164C23.7124 0.71998 23.4884 0.79198 23.3444 0.93598C23.2164 1.06398 23.1524 1.27998 23.1524 1.58398V13.464C23.1524 14.2 23.2564 14.872 23.4644 15.48C23.6884 16.072 24.0724 16.584 24.6164 17.016C25.1764 17.432 25.9364 17.76 26.8964 18C27.8564 18.24 29.0804 18.36 30.5684 18.36C32.0564 18.36 33.2804 18.24 34.2404 18C35.2004 17.76 35.9524 17.432 36.4964 17.016C37.0564 16.584 37.4404 16.072 37.6484 15.48C37.8724 14.872 37.9844 14.2 37.9844 13.464ZM25.7924 2.87998H26.0324V12.888C26.0324 13.784 26.3444 14.512 26.9684 15.072C27.6084 15.616 28.8164 15.888 30.5924 15.888C32.3684 15.888 33.5764 15.616 34.2164 15.072C34.8564 14.512 35.1764 13.784 35.1764 12.888V2.87998H35.4164V12.888C35.4164 13.848 35.0804 14.632 34.4084 15.24C33.7364 15.832 32.4644 16.128 30.5924 16.128C28.7204 16.128 27.4484 15.832 26.7764 15.24C26.1204 14.632 25.7924 13.848 25.7924 12.888V2.87998Z" fill="current"/>
<path d="M10.0799 20.856H6.19191C5.79191 20.856 5.50391 20.768 5.32791 20.592C5.16791 20.416 5.08791 20.136 5.08791 19.752V16.752L1.46391 11.904C1.07991 11.392 0.823906 10.944 0.695906 10.56C0.567906 10.176 0.503906 9.59198 0.503906 8.80798V4.19998C0.503906 3.99198 0.527906 3.81598 0.575906 3.67198C0.639906 3.52798 0.727906 3.40798 0.839906 3.31198L3.93591 0.69598C4.01591 0.63198 4.11991 0.58398 4.24791 0.551979C4.39191 0.50398 4.54391 0.47998 4.70391 0.47998H8.39991C8.78391 0.47998 9.06391 0.567981 9.23991 0.74398C9.41591 0.919981 9.50391 1.19998 9.50391 1.58398V5.51998C9.50391 5.66398 9.51191 5.80798 9.52791 5.95198C9.54391 6.09598 9.59191 6.24798 9.67191 6.40798L9.95991 6.81598V4.19998C9.95991 3.99198 9.98391 3.81598 10.0319 3.67198C10.0959 3.52798 10.1839 3.40798 10.2959 3.31198L13.3919 0.69598C13.4719 0.63198 13.5759 0.58398 13.7039 0.551979C13.8479 0.50398 13.9999 0.47998 14.1599 0.47998H17.7359C18.1199 0.47998 18.3999 0.567981 18.5759 0.74398C18.7519 0.919981 18.8399 1.19998 18.8399 1.58398V6.19198C18.8399 6.97598 18.7759 7.55998 18.6479 7.94398C18.5199 8.32798 18.2639 8.77598 17.8799 9.28798L14.2799 14.16V17.136C14.2799 17.344 14.2479 17.52 14.1839 17.664C14.1359 17.808 14.0559 17.928 13.9439 18.024L10.8239 20.616C10.7599 20.68 10.6559 20.736 10.5119 20.784C10.3839 20.832 10.2399 20.856 10.0799 20.856ZM13.1759 18C13.4799 18 13.6959 17.936 13.8239 17.808C13.9679 17.664 14.0399 17.44 14.0399 17.136V14.088L17.6879 9.14398C18.0399 8.64798 18.2799 8.21598 18.4079 7.84798C18.5359 7.47998 18.5999 6.92798 18.5999 6.19198V1.58398C18.5999 1.27998 18.5279 1.06398 18.3839 0.93598C18.2559 0.79198 18.0399 0.71998 17.7359 0.71998H14.1599C13.8559 0.71998 13.6319 0.79198 13.4879 0.93598C13.3599 1.06398 13.2959 1.27998 13.2959 1.58398V5.51998C13.2959 5.67998 13.2879 5.84798 13.2719 6.02398C13.2559 6.19998 13.1919 6.36798 13.0799 6.52798L11.9759 8.25598C11.8959 8.39998 11.8079 8.50398 11.7119 8.56798C11.6319 8.63198 11.5279 8.66398 11.3999 8.66398H11.1599C11.0319 8.66398 10.9199 8.63198 10.8239 8.56798C10.7439 8.50398 10.6639 8.39998 10.5839 8.25598L9.47991 6.52798C9.36791 6.36798 9.30391 6.19998 9.28791 6.02398C9.27191 5.84798 9.26391 5.67998 9.26391 5.51998V1.58398C9.26391 1.27998 9.19191 1.06398 9.04791 0.93598C8.91991 0.79198 8.70391 0.71998 8.39991 0.71998H4.70391C4.39991 0.71998 4.17591 0.79198 4.03191 0.93598C3.90391 1.06398 3.83991 1.27998 3.83991 1.58398V6.19198C3.83991 6.92798 3.89591 7.47998 4.00791 7.84798C4.13591 8.21598 4.38391 8.64798 4.75191 9.14398L8.42391 14.064V17.136C8.42391 17.44 8.48791 17.664 8.61591 17.808C8.75991 17.936 8.98391 18 9.28791 18H13.1759ZM11.5199 11.736H11.3519V15.84H11.1119V11.736H10.8719C10.5199 11.736 10.1999 11.656 9.91191 11.496C9.63991 11.336 9.37591 11.08 9.11991 10.728L6.79191 7.48798C6.61591 7.24798 6.51191 6.96798 6.47991 6.64798C6.44791 6.32798 6.43191 5.99198 6.43191 5.63998V2.87998H6.67191V5.63998C6.67191 5.97598 6.68791 6.29598 6.71991 6.59998C6.75191 6.88798 6.84791 7.15198 7.00791 7.39198L9.33591 10.632C9.54391 10.952 9.78391 11.176 10.0559 11.304C10.3279 11.432 10.5999 11.496 10.8719 11.496H11.5199C11.8239 11.496 12.0959 11.432 12.3359 11.304C12.5919 11.16 12.8399 10.936 13.0799 10.632L15.4799 7.39198C15.6399 7.18398 15.7359 6.92798 15.7679 6.62398C15.7999 6.30398 15.8159 5.97598 15.8159 5.63998V2.87998H16.0559V5.63998C16.0559 5.99198 16.0399 6.32798 16.0079 6.64798C15.9919 6.95198 15.8879 7.23198 15.6959 7.48798L13.2959 10.728C13.0399 11.08 12.7679 11.336 12.4799 11.496C12.2079 11.656 11.8879 11.736 11.5199 11.736Z" fill="current"/>
</svg>
