<svg width="687" height="687" viewBox="0 0 687 687" fill="none" xmlns="http://www.w3.org/2000/svg">
<path d="M343.319 668.204C163.939 668.204 18.5484 522.797 18.5484 343.427C18.5484 164.058 163.939 18.6486 343.319 18.6486C522.673 18.6486 668.09 164.058 668.09 343.427C668.09 522.797 522.673 668.204 343.319 668.204ZM679.708 273.632C666.037 206.113 630.776 143.048 581.034 95.475C531.076 47.7213 466.608 14.9956 398.195 4.46356C380.038 1.66708 361.8 0.0459196 343.427 -1.30671e-05C272.907 0.183717 202.684 21.9071 145.241 63.0115C88.2308 103.775 44.784 160.478 20.5748 226.261C-4.14773 293.409 -6.52547 368.915 13.0905 437.668C31.9229 503.632 71.0195 563.937 124.031 607.543C179.096 652.838 246.266 680.176 317.381 685.817C388.144 691.432 460.528 674.145 521.187 637.307C579.548 601.874 627.507 548.714 655.634 486.421C685.76 419.757 694.245 345.376 679.708 273.632Z" fill="#FF86A5"/>
<path d="M578.584 128.549C578.584 128.549 578.101 129.597 577.268 131.399C573.078 140.372 560.24 168.026 556.023 177.676C555.083 179.788 554.573 181.042 554.653 181.042C554.734 181.042 556.211 181.117 558.655 181.246C570.795 181.88 606.893 183.816 616.186 184.316C617.61 184.391 618.389 184.434 618.389 184.434L617.154 185.93L584.628 224.918L582.506 227.464L586.212 228.297L642.347 240.963L645.812 241.748L643.448 244.224L604.691 285.041L600.286 289.688L606.007 291.869L658.032 311.723L661.336 312.988L658.328 314.758L610.089 342.946L606.974 344.77L610.036 346.671L658.14 376.616L661.336 378.603L657.817 379.71L603.912 396.609L598.137 398.422L602.596 402.368L645.167 440.077L648.229 442.79L644.227 442.959L588.173 445.342L585.192 445.468L586.991 448.076L619.812 495.64L564.376 488.772L559.3 488.141L561.798 492.492L590.563 542.5L591.45 544.026L589.65 543.642L529.326 530.688L525.727 529.922L526.344 533.554L536.712 595.594L537.356 599.285L534.536 597.262L488.124 563.641L482.967 559.915L483.129 566.797L484.525 628.491L484.579 631.158L482.565 629.463L435.723 590.005L428.606 584.021L427.88 592.785L422.965 651.694L422.724 654.727L421.058 652.191L388.908 602.68L381.657 591.52L377.037 604.485L356.678 661.67L355.228 665.795L353.24 661.801L325.71 606.158L320.58 595.804L315.101 605.312L285.395 656.867L284.16 659.011L283.73 656.545L273.416 597.676L272.02 589.734L266.406 595.702L225.151 639.573L223.996 640.8V639.103V579.074V570.629L217.335 575.673L170.601 611.159L178.766 550.759L179.357 546.346L175.301 548.02L119.892 570.758L114.977 572.773L116.884 567.753L138.022 511.702L141.245 503.139L132.919 505.497L78.8251 520.815L102.031 456.628L104.287 450.378L98.6199 449.454L40.5247 439.935L81.9946 400.684L90.6161 392.53L79.7116 389.884L28.7607 377.532L75.0113 347.745L79.6308 344.77L74.9038 341.968L26.8 313.536L25.269 312.63L26.9343 312.142L78.1536 297.06L89.5418 293.703L80.2218 285.533L39.6652 250.018L37.7583 248.352L40.4172 247.689L96.4175 233.693L103.482 231.926L99.9361 225.826L72.4327 178.286L70.6332 175.149L74.5009 174.974L126.338 172.648L116.051 122.638L115.621 120.513L117.421 121.244L163.645 139.978L167.754 141.648L167.808 136.306L168.238 79.6718L168.291 73.5561L173.609 76.2125L221.606 100.219L227.219 103.017L227.891 97.1433L233.773 46.6625L234.713 38.7392C234.713 38.7392 237.077 40.8933 240.729 44.2158C251.446 53.9923 273.309 73.8999 278.922 79.0352C279.701 79.747 280.158 80.1741 280.238 80.252C280.319 80.3433 280.775 79.6638 281.527 78.396C285.852 71.0287 299.872 43.6033 307.016 29.524C309.622 24.4155 311.314 21.0635 311.314 21.0635L314.698 28.7639L333.499 71.5793L335.675 76.5026C335.916 75.9922 337.313 74.147 339.488 71.453C347.949 60.9674 367.959 37.5548 375.13 29.1937C376.768 27.2813 377.709 26.1506 377.709 26.1506L378.89 29.6234L394.495 76.4783L396.187 81.5922L401.29 77.9019L446.493 45.0026L449.233 43.0231L449.018 45.8837L445.553 91.9865L445.204 96.5874L450.307 94.0358L499.862 69.2615L503.058 67.6633L502.467 70.787L493.55 118.096L492.341 124.443L498.035 121.228L540.714 97.0951L542.567 96.053L541.895 98.0459L526.398 144.624L524.491 150.42L530.078 148.161L575.684 129.718L578.584 128.549ZM343.302 18.6516C163.94 18.6516 18.5273 164.059 18.5273 343.429C18.5273 522.799 163.94 668.207 343.302 668.207C522.665 668.207 668.077 522.799 668.077 343.429C668.077 164.059 522.665 18.6516 343.302 18.6516Z" fill="#009BCA"/>
<path d="M342.509 542.399C232.182 542.399 142.452 453.744 142.452 344.769C142.452 235.797 232.182 147.142 342.509 147.142C452.808 147.142 542.566 235.797 542.566 344.769C542.566 453.744 452.808 542.399 342.509 542.399ZM524.491 150.421L526.395 144.623L541.896 98.047L542.566 96.0545L540.716 97.0976L498.023 121.228L492.337 124.443L493.544 118.096L502.474 70.7872L503.064 67.6656L499.873 69.2639L450.314 94.0378L445.219 96.5909L445.541 91.989L449.001 45.8846L449.215 43.0259L446.507 45.0023L401.266 77.9045L396.197 81.5919L394.481 76.4805L378.873 29.6252L377.72 26.1524C377.72 26.1524 376.755 27.2814 375.119 29.1962C367.959 37.5552 347.953 60.9693 339.478 71.4548C337.306 74.15 335.912 75.9951 335.67 76.502L333.498 71.5809L314.699 28.7643L311.294 21.0651C311.294 21.0651 309.604 24.4173 307.03 29.5233C299.869 43.6051 285.871 71.0285 281.526 78.3979C280.775 79.6637 280.32 80.3421 280.239 80.2536C280.159 80.1759 279.676 79.7495 278.925 79.0361C273.32 73.9006 251.437 53.9914 240.71 44.2165C237.063 40.8939 234.703 38.7404 234.703 38.7404L233.791 46.6623L227.892 97.1432L227.194 103.019L221.616 100.219L173.587 76.2123L168.277 73.5574L168.223 79.6745L167.794 136.307L167.74 141.649L163.637 139.979L117.404 121.244L115.607 120.515L116.036 122.639L126.334 172.65L74.4965 174.978L70.608 175.15L72.4316 178.287L99.946 225.829L103.486 231.927L96.4064 233.694L40.4116 247.69L37.7568 248.353L39.6607 250.018L80.2086 285.535L89.541 293.703L78.1436 297.061L26.9225 312.143L25.2598 312.631L26.7884 313.538L74.8988 341.969L79.6455 344.769L75.0059 347.746L28.746 377.535L79.6989 389.884L90.6137 392.531L82.0054 400.683L40.5189 439.936L98.6321 449.453L104.264 450.379L102.011 456.63L78.841 520.817L132.905 505.499L141.245 503.139L138 511.704L116.868 567.753L114.991 572.773L119.898 570.759L175.276 548.02L179.352 546.35L178.762 550.761L170.61 611.159L217.353 575.674L224.003 570.63V579.075V639.103V640.8L225.13 639.575L266.401 595.704L272.033 589.735L273.401 597.675L283.725 656.547L284.154 659.012L285.388 656.867L315.102 605.313L320.572 595.806L325.695 606.158L353.236 661.801L355.22 665.797L356.695 661.67L377.023 604.484L381.635 591.521L388.903 602.68L421.057 652.192L422.72 654.727L422.961 651.694L427.869 592.787L428.619 584.023L435.726 590.006L482.576 629.462L484.587 631.157L484.507 628.491L483.139 566.798L482.978 559.917L488.127 563.641L534.548 597.262L537.337 599.287L536.72 595.594L526.342 533.552L525.725 529.924L529.318 530.688L589.657 543.641L591.427 544.027L590.542 542.501L561.794 492.492L559.3 488.143L564.369 488.773L619.827 495.641L587.002 448.078L585.206 445.471L588.183 445.342L644.231 442.961L648.226 442.792L645.142 440.078L602.583 402.367L598.132 398.423L603.924 396.61L657.8 379.712L661.34 378.605L658.149 376.617L610.012 346.673L606.955 344.769L610.092 342.946L658.31 314.758L661.34 312.988L658.015 311.722L605.989 291.869L600.277 289.689L604.675 285.044L643.453 244.226L645.813 241.748L642.354 240.965L586.198 228.299L582.524 227.465L584.643 224.92L617.145 185.93L618.406 184.434C618.406 184.434 617.601 184.393 616.207 184.316C606.901 183.817 570.805 181.881 558.656 181.245C556.216 181.119 554.741 181.041 554.661 181.041C554.58 181.041 555.09 179.789 556.002 177.676C560.239 168.027 573.084 140.373 577.268 131.4C578.099 129.6 578.582 128.549 578.582 128.549L575.685 129.718L530.069 148.163L524.491 150.421Z" fill="#FFBF29"/>
<path d="M484.473 344.975C484.473 344.975 484.421 345.043 484.29 345.158L484.029 344.532C484.186 344.683 484.342 344.824 484.473 344.975ZM458.802 350.397C458.515 372.765 454.393 393.234 447.766 409.205C449.801 410.755 451.784 412.438 453.636 414.287C457.471 418.122 451.34 423.893 447.505 420.071C446.41 418.988 445.288 417.981 444.114 417.021C437.826 411.788 430.6 408.376 423.06 406.753C408.659 403.641 393.163 407.066 381.162 416.648C378.84 418.503 376.649 420.572 374.614 422.883C371.04 426.964 365.274 420.802 368.822 416.755C371.535 413.674 374.51 410.964 377.64 408.613C371.379 392.425 367.753 371.724 368.066 349.196C368.196 338.513 369.188 328.263 370.935 318.728L402.633 321.436L377.718 293.837C384.423 276.075 394.102 263.269 405.137 258.62C407.381 257.667 409.703 257.057 412.077 256.817C412.912 256.728 413.799 256.684 414.66 256.697C439.731 257.028 459.48 298.981 458.802 350.397ZM359.874 395.008C354.239 402.013 341.821 403.951 333.838 400.218C326.872 396.954 323.767 388.921 326.976 382.415C327.107 381.345 327.576 380.268 328.489 379.284C334.907 372.347 345.656 369.444 354.317 373.861C362.3 377.923 365.796 387.654 359.874 395.008ZM318.758 350.66C318.445 374.098 313.958 395.441 306.758 411.712C308.61 413.15 310.384 414.697 312.08 416.385C315.941 420.22 309.784 425.991 305.949 422.166C304.984 421.203 303.966 420.303 302.949 419.437C296.818 414.243 289.774 410.805 282.443 409.07C268.46 405.767 253.38 408.65 241.38 417.397C238.406 419.568 235.588 422.09 233.058 424.981C229.483 429.061 223.744 422.899 227.292 418.853C230.475 415.206 234.049 412.091 237.858 409.469C231.44 393.195 227.709 372.264 228.023 349.457C228.153 338.774 229.17 328.524 230.918 318.991L262.59 321.699L237.701 294.097C244.38 276.339 254.059 263.532 265.094 258.881C267.364 257.928 269.686 257.318 272.034 257.078C272.895 256.989 273.756 256.947 274.617 256.958C299.688 257.289 319.437 299.242 318.758 350.66ZM233.24 241.881C234.31 240.569 235.432 239.338 236.606 238.169C236.684 238.08 236.762 237.991 236.84 237.908C236.945 237.824 237.023 237.741 237.101 237.66C247.511 227.232 261.677 222.615 275.477 223.778C287.191 224.616 298.696 229.484 307.697 238.435C311.375 242.093 305.61 247.694 301.957 244.044C283.8 226.001 254.894 228.002 238.849 247.639C235.562 251.646 230.005 245.847 233.24 241.881ZM376.049 242.155C384.997 232.124 396.972 226.69 409.233 225.722C423.53 224.384 438.348 229.283 449.097 240.345C449.175 240.425 449.227 240.512 449.305 240.592C449.723 241.031 450.166 241.466 450.61 241.926C454.132 245.737 448.131 251.085 444.609 247.282C427.26 228.472 398.302 229.226 381.423 248.15C377.953 252.014 372.631 245.977 376.049 242.155ZM198.751 339.348C198.751 339.338 198.777 339.27 198.829 339.165L198.751 339.348ZM342.499 147.143C232.197 147.143 142.452 235.8 142.452 344.772C142.452 453.746 232.197 542.403 342.499 542.403C452.801 542.403 542.546 453.746 542.546 344.772C542.546 235.8 452.801 147.143 342.499 147.143Z" fill="#FF6E3D"/>
<path d="M198.855 339.161C198.783 339.264 198.759 339.331 198.783 339.343L198.855 339.161Z" fill="#FFEDEA"/>
<path d="M484.496 344.97C484.342 344.818 484.213 344.677 484.059 344.528L484.29 345.153C484.419 345.037 484.496 344.97 484.496 344.97Z" fill="#FFEDEA"/>
<path d="M274.636 256.953C273.771 256.941 272.906 256.985 272.065 257.072C276.317 266.532 279.951 276.284 282.843 286.253C293.745 323.781 294.116 363.55 284.648 401.038C292.534 402.951 300.098 406.508 306.772 411.709C313.966 395.436 318.465 374.093 318.786 350.654C319.453 299.236 299.702 257.284 274.636 256.953Z" fill="#F3E6CE"/>
<path d="M282.837 286.259C279.923 276.29 276.317 266.537 272.044 257.078C269.673 257.32 267.351 257.93 265.104 258.881C254.064 263.531 244.382 276.34 237.689 294.098L262.609 321.701L230.897 318.991C229.168 328.525 228.155 338.775 228.007 349.459C227.71 372.265 231.44 393.195 237.862 409.468C234.058 412.091 230.477 415.208 227.29 418.851C223.734 422.899 229.489 429.062 233.07 424.981C235.589 422.092 238.405 419.568 241.393 417.397C253.397 408.651 268.463 405.769 282.442 409.071C289.777 410.805 296.816 414.243 302.941 419.437C303.979 420.304 304.991 421.203 305.954 422.168C309.783 425.989 315.933 420.22 312.08 416.384C310.376 414.697 308.597 413.151 306.77 411.713C300.076 406.514 292.519 402.955 284.64 401.041C294.099 363.557 293.729 323.785 282.837 286.259Z" fill="#001619"/>
<path d="M414.667 256.697C413.797 256.685 412.927 256.728 412.058 256.815C416.329 266.274 419.962 276.025 422.878 285.995C433.57 322.829 434.132 361.819 425.18 398.694C433.212 400.497 440.936 404.011 447.766 409.204C454.391 393.235 458.509 372.764 458.79 350.398C459.481 298.979 439.708 257.027 414.667 256.697Z" fill="#F3E6CE"/>
<path d="M422.864 285.996C419.95 276.025 416.345 266.274 412.075 256.817C409.698 257.057 407.396 257.668 405.147 258.619C394.102 263.267 384.438 276.076 377.714 293.835L402.616 321.436L370.938 318.729C369.2 328.263 368.177 338.512 368.049 349.197C367.743 371.723 371.399 392.425 377.662 408.614C374.518 410.963 371.526 413.676 368.816 416.757C365.288 420.801 371.041 426.963 374.62 422.885C376.64 420.571 378.838 418.503 381.165 416.649C393.181 407.064 408.649 403.641 423.069 406.752C430.611 408.376 437.821 411.786 444.11 417.023C445.286 417.979 446.411 418.989 447.485 420.07C451.346 423.892 457.482 418.122 453.621 414.287C451.78 412.436 449.812 410.754 447.766 409.204C440.94 404.012 433.219 400.496 425.191 398.694C434.114 361.819 433.551 322.827 422.864 285.996Z" fill="#001619"/>
<path d="M354.312 373.859C345.661 369.443 334.909 372.349 328.508 379.285C327.583 380.267 327.108 381.345 326.982 382.415C323.757 388.921 326.858 396.955 333.834 400.218C341.81 403.951 354.237 402.014 359.863 395.007C365.789 387.651 362.288 377.922 354.312 373.859Z" fill="#001619"/>
<path d="M238.859 247.633C254.919 227.995 283.808 225.995 301.966 244.036C305.642 247.685 311.39 242.085 307.714 238.429C298.734 229.478 287.213 224.611 275.495 223.772C261.704 222.607 247.543 227.226 237.132 237.651C237.033 237.735 236.959 237.817 236.861 237.901C236.787 237.987 236.713 238.073 236.614 238.162C235.455 239.331 234.32 240.563 233.259 241.875C230.027 245.84 235.578 251.64 238.859 247.633Z" fill="#001619"/>
<path d="M381.431 248.145C398.317 229.22 427.26 228.467 444.606 247.276C448.132 251.08 454.135 245.731 450.61 241.919C450.201 241.459 449.741 241.025 449.332 240.586C449.256 240.504 449.205 240.42 449.128 240.338C438.373 229.277 423.556 224.377 409.25 225.715C396.963 226.684 385.007 232.12 376.066 242.149C372.643 245.973 377.982 252.008 381.431 248.145Z" fill="#001619"/>
</svg>
